<mxfile host="app.diagrams.net" modified="2024-05-05T13:28:04.686Z" agent="Mozilla/5.0 (Windows NT 10.0; Win64; x64) AppleWebKit/537.36 (KHTML, like Gecko) Chrome/122.0.0.0 Safari/537.36" etag="xy8106KOsYAreqOcdAdN" version="24.3.1" type="device">
  <diagram name="Page-1" id="RqvQnpwAmJFReXfTXjBo">
    <mxGraphModel dx="1970" dy="1534" grid="1" gridSize="10" guides="1" tooltips="1" connect="1" arrows="1" fold="1" page="1" pageScale="1" pageWidth="850" pageHeight="1100" math="0" shadow="0">
      <root>
        <mxCell id="0" />
        <mxCell id="1" parent="0" />
        <mxCell id="WsF2pE6Kl3HCqP51J9eK-1" value="use case diagram admin" style="swimlane;whiteSpace=wrap;html=1;" parent="1" vertex="1">
          <mxGeometry x="170" y="-480" width="380" height="350" as="geometry" />
        </mxCell>
        <mxCell id="WsF2pE6Kl3HCqP51J9eK-5" value="mengatur pelayanan jumlah loket" style="ellipse;whiteSpace=wrap;html=1;" parent="WsF2pE6Kl3HCqP51J9eK-1" vertex="1">
          <mxGeometry x="70" y="70" width="100" height="60" as="geometry" />
        </mxCell>
        <mxCell id="WsF2pE6Kl3HCqP51J9eK-7" value="reset data loket" style="ellipse;whiteSpace=wrap;html=1;" parent="WsF2pE6Kl3HCqP51J9eK-1" vertex="1">
          <mxGeometry x="110" y="160" width="120" height="80" as="geometry" />
        </mxCell>
        <mxCell id="WsF2pE6Kl3HCqP51J9eK-6" style="edgeStyle=orthogonalEdgeStyle;rounded=0;orthogonalLoop=1;jettySize=auto;html=1;" parent="1" source="WsF2pE6Kl3HCqP51J9eK-2" target="WsF2pE6Kl3HCqP51J9eK-5" edge="1">
          <mxGeometry relative="1" as="geometry">
            <Array as="points">
              <mxPoint x="125" y="-380" />
            </Array>
          </mxGeometry>
        </mxCell>
        <mxCell id="WsF2pE6Kl3HCqP51J9eK-2" value="admin" style="shape=umlActor;verticalLabelPosition=bottom;verticalAlign=top;html=1;outlineConnect=0;" parent="1" vertex="1">
          <mxGeometry x="110" y="-320" width="30" height="60" as="geometry" />
        </mxCell>
        <mxCell id="WsF2pE6Kl3HCqP51J9eK-8" style="edgeStyle=orthogonalEdgeStyle;rounded=0;orthogonalLoop=1;jettySize=auto;html=1;entryX=0.033;entryY=0.4;entryDx=0;entryDy=0;entryPerimeter=0;" parent="1" source="WsF2pE6Kl3HCqP51J9eK-2" target="WsF2pE6Kl3HCqP51J9eK-7" edge="1">
          <mxGeometry relative="1" as="geometry" />
        </mxCell>
        <mxCell id="WsF2pE6Kl3HCqP51J9eK-9" value="use case data pelayanan" style="swimlane;whiteSpace=wrap;html=1;" parent="1" vertex="1">
          <mxGeometry x="50" y="-70" width="440" height="340" as="geometry" />
        </mxCell>
        <mxCell id="WsF2pE6Kl3HCqP51J9eK-15" value="memilih loket" style="ellipse;whiteSpace=wrap;html=1;" parent="WsF2pE6Kl3HCqP51J9eK-9" vertex="1">
          <mxGeometry x="270" y="80" width="90" height="60" as="geometry" />
        </mxCell>
        <mxCell id="WsF2pE6Kl3HCqP51J9eK-17" value="nomor antrian" style="ellipse;whiteSpace=wrap;html=1;" parent="WsF2pE6Kl3HCqP51J9eK-9" vertex="1">
          <mxGeometry x="300" y="178" width="95" height="52" as="geometry" />
        </mxCell>
        <mxCell id="WsF2pE6Kl3HCqP51J9eK-19" value="membuat data antrian" style="ellipse;whiteSpace=wrap;html=1;" parent="WsF2pE6Kl3HCqP51J9eK-9" vertex="1">
          <mxGeometry x="55" y="80" width="90" height="60" as="geometry" />
        </mxCell>
        <mxCell id="WsF2pE6Kl3HCqP51J9eK-21" value="memasukan data antrian" style="ellipse;whiteSpace=wrap;html=1;" parent="WsF2pE6Kl3HCqP51J9eK-9" vertex="1">
          <mxGeometry x="50" y="180" width="95" height="50" as="geometry" />
        </mxCell>
        <mxCell id="3ZdCSwMe_s6b4gcNYP9G-8" value="cek antrian" style="ellipse;whiteSpace=wrap;html=1;" vertex="1" parent="WsF2pE6Kl3HCqP51J9eK-9">
          <mxGeometry x="180" y="230" width="95" height="60" as="geometry" />
        </mxCell>
        <mxCell id="3ZdCSwMe_s6b4gcNYP9G-11" value="informasi antrian" style="ellipse;whiteSpace=wrap;html=1;" vertex="1" parent="WsF2pE6Kl3HCqP51J9eK-9">
          <mxGeometry x="180" y="40" width="90" height="52" as="geometry" />
        </mxCell>
        <mxCell id="3ZdCSwMe_s6b4gcNYP9G-17" style="edgeStyle=orthogonalEdgeStyle;rounded=0;orthogonalLoop=1;jettySize=auto;html=1;entryX=0.211;entryY=0.981;entryDx=0;entryDy=0;entryPerimeter=0;" edge="1" parent="WsF2pE6Kl3HCqP51J9eK-9" source="3ZdCSwMe_s6b4gcNYP9G-8" target="WsF2pE6Kl3HCqP51J9eK-17">
          <mxGeometry relative="1" as="geometry" />
        </mxCell>
        <mxCell id="WsF2pE6Kl3HCqP51J9eK-20" style="edgeStyle=orthogonalEdgeStyle;rounded=0;orthogonalLoop=1;jettySize=auto;html=1;entryX=0;entryY=0.5;entryDx=0;entryDy=0;" parent="1" source="WsF2pE6Kl3HCqP51J9eK-10" target="WsF2pE6Kl3HCqP51J9eK-19" edge="1">
          <mxGeometry relative="1" as="geometry">
            <Array as="points">
              <mxPoint x="100" y="40" />
            </Array>
          </mxGeometry>
        </mxCell>
        <mxCell id="3ZdCSwMe_s6b4gcNYP9G-10" style="edgeStyle=orthogonalEdgeStyle;rounded=0;orthogonalLoop=1;jettySize=auto;html=1;entryX=0;entryY=0.5;entryDx=0;entryDy=0;" edge="1" parent="1" source="WsF2pE6Kl3HCqP51J9eK-10" target="WsF2pE6Kl3HCqP51J9eK-21">
          <mxGeometry relative="1" as="geometry">
            <Array as="points">
              <mxPoint x="5" y="130" />
              <mxPoint x="100" y="130" />
            </Array>
          </mxGeometry>
        </mxCell>
        <mxCell id="WsF2pE6Kl3HCqP51J9eK-10" value="admin" style="shape=umlActor;verticalLabelPosition=bottom;verticalAlign=top;html=1;outlineConnect=0;" parent="1" vertex="1">
          <mxGeometry x="-10" y="10" width="30" height="60" as="geometry" />
        </mxCell>
        <mxCell id="WsF2pE6Kl3HCqP51J9eK-16" style="edgeStyle=orthogonalEdgeStyle;rounded=0;orthogonalLoop=1;jettySize=auto;html=1;entryX=1;entryY=0.5;entryDx=0;entryDy=0;" parent="1" source="WsF2pE6Kl3HCqP51J9eK-13" target="WsF2pE6Kl3HCqP51J9eK-15" edge="1">
          <mxGeometry relative="1" as="geometry">
            <Array as="points">
              <mxPoint x="410" y="30" />
            </Array>
          </mxGeometry>
        </mxCell>
        <mxCell id="WsF2pE6Kl3HCqP51J9eK-13" value="user" style="shape=umlActor;verticalLabelPosition=bottom;verticalAlign=top;html=1;outlineConnect=0;" parent="1" vertex="1">
          <mxGeometry x="535" y="10" width="30" height="60" as="geometry" />
        </mxCell>
        <mxCell id="WsF2pE6Kl3HCqP51J9eK-18" style="edgeStyle=orthogonalEdgeStyle;rounded=0;orthogonalLoop=1;jettySize=auto;html=1;entryX=0.947;entryY=0.269;entryDx=0;entryDy=0;entryPerimeter=0;" parent="1" source="WsF2pE6Kl3HCqP51J9eK-13" target="WsF2pE6Kl3HCqP51J9eK-17" edge="1">
          <mxGeometry relative="1" as="geometry">
            <Array as="points">
              <mxPoint x="510" y="40" />
              <mxPoint x="510" y="130" />
              <mxPoint x="440" y="130" />
            </Array>
          </mxGeometry>
        </mxCell>
        <mxCell id="3ZdCSwMe_s6b4gcNYP9G-13" style="edgeStyle=orthogonalEdgeStyle;rounded=0;orthogonalLoop=1;jettySize=auto;html=1;entryX=0.044;entryY=0.385;entryDx=0;entryDy=0;entryPerimeter=0;" edge="1" parent="1" source="WsF2pE6Kl3HCqP51J9eK-10" target="3ZdCSwMe_s6b4gcNYP9G-11">
          <mxGeometry relative="1" as="geometry">
            <Array as="points">
              <mxPoint x="5" y="-10" />
            </Array>
          </mxGeometry>
        </mxCell>
        <mxCell id="3ZdCSwMe_s6b4gcNYP9G-18" style="edgeStyle=orthogonalEdgeStyle;rounded=0;orthogonalLoop=1;jettySize=auto;html=1;entryX=0.978;entryY=0.308;entryDx=0;entryDy=0;entryPerimeter=0;" edge="1" parent="1" source="WsF2pE6Kl3HCqP51J9eK-13" target="3ZdCSwMe_s6b4gcNYP9G-11">
          <mxGeometry relative="1" as="geometry">
            <Array as="points">
              <mxPoint x="550" y="-14" />
            </Array>
          </mxGeometry>
        </mxCell>
        <mxCell id="3ZdCSwMe_s6b4gcNYP9G-19" value="use case data loket" style="swimlane;whiteSpace=wrap;html=1;" vertex="1" parent="1">
          <mxGeometry x="20" y="400" width="340" height="240" as="geometry" />
        </mxCell>
        <mxCell id="3ZdCSwMe_s6b4gcNYP9G-35" style="edgeStyle=orthogonalEdgeStyle;rounded=0;orthogonalLoop=1;jettySize=auto;html=1;entryX=1;entryY=0.5;entryDx=0;entryDy=0;" edge="1" parent="3ZdCSwMe_s6b4gcNYP9G-19" source="3ZdCSwMe_s6b4gcNYP9G-22" target="3ZdCSwMe_s6b4gcNYP9G-33">
          <mxGeometry relative="1" as="geometry" />
        </mxCell>
        <mxCell id="3ZdCSwMe_s6b4gcNYP9G-22" value="melihat data loket" style="ellipse;whiteSpace=wrap;html=1;" vertex="1" parent="3ZdCSwMe_s6b4gcNYP9G-19">
          <mxGeometry x="180" y="40" width="90" height="50" as="geometry" />
        </mxCell>
        <mxCell id="3ZdCSwMe_s6b4gcNYP9G-29" value="memasukan data antrian" style="ellipse;whiteSpace=wrap;html=1;" vertex="1" parent="3ZdCSwMe_s6b4gcNYP9G-19">
          <mxGeometry x="30" y="150" width="100" height="50" as="geometry" />
        </mxCell>
        <mxCell id="3ZdCSwMe_s6b4gcNYP9G-33" value="menampilkan data antrian dan loket" style="ellipse;whiteSpace=wrap;html=1;" vertex="1" parent="3ZdCSwMe_s6b4gcNYP9G-19">
          <mxGeometry x="30" y="70" width="90" height="50" as="geometry" />
        </mxCell>
        <mxCell id="3ZdCSwMe_s6b4gcNYP9G-23" style="edgeStyle=orthogonalEdgeStyle;rounded=0;orthogonalLoop=1;jettySize=auto;html=1;entryX=1;entryY=0.5;entryDx=0;entryDy=0;" edge="1" parent="1" source="3ZdCSwMe_s6b4gcNYP9G-20" target="3ZdCSwMe_s6b4gcNYP9G-22">
          <mxGeometry relative="1" as="geometry">
            <Array as="points">
              <mxPoint x="410" y="475" />
              <mxPoint x="410" y="475" />
            </Array>
          </mxGeometry>
        </mxCell>
        <mxCell id="3ZdCSwMe_s6b4gcNYP9G-20" value="user&amp;nbsp;" style="shape=umlActor;verticalLabelPosition=bottom;verticalAlign=top;html=1;outlineConnect=0;" vertex="1" parent="1">
          <mxGeometry x="410" y="500" width="30" height="60" as="geometry" />
        </mxCell>
        <mxCell id="3ZdCSwMe_s6b4gcNYP9G-32" style="edgeStyle=orthogonalEdgeStyle;rounded=0;orthogonalLoop=1;jettySize=auto;html=1;" edge="1" parent="1" source="3ZdCSwMe_s6b4gcNYP9G-24" target="3ZdCSwMe_s6b4gcNYP9G-29">
          <mxGeometry relative="1" as="geometry" />
        </mxCell>
        <mxCell id="3ZdCSwMe_s6b4gcNYP9G-34" style="edgeStyle=orthogonalEdgeStyle;rounded=0;orthogonalLoop=1;jettySize=auto;html=1;" edge="1" parent="1" source="3ZdCSwMe_s6b4gcNYP9G-24">
          <mxGeometry relative="1" as="geometry">
            <mxPoint x="40" y="480" as="targetPoint" />
            <Array as="points">
              <mxPoint x="-55" y="490" />
              <mxPoint x="41" y="490" />
            </Array>
          </mxGeometry>
        </mxCell>
        <mxCell id="3ZdCSwMe_s6b4gcNYP9G-24" value="admin" style="shape=umlActor;verticalLabelPosition=bottom;verticalAlign=top;html=1;outlineConnect=0;" vertex="1" parent="1">
          <mxGeometry x="-70" y="500" width="30" height="60" as="geometry" />
        </mxCell>
        <mxCell id="3ZdCSwMe_s6b4gcNYP9G-36" value="List" style="swimlane;fontStyle=0;childLayout=stackLayout;horizontal=1;startSize=30;horizontalStack=0;resizeParent=1;resizeParentMax=0;resizeLast=0;collapsible=1;marginBottom=0;whiteSpace=wrap;html=1;" vertex="1" parent="1">
          <mxGeometry x="140" y="1250" width="140" height="120" as="geometry" />
        </mxCell>
        <mxCell id="3ZdCSwMe_s6b4gcNYP9G-37" value="Item 1" style="text;strokeColor=none;fillColor=none;align=left;verticalAlign=middle;spacingLeft=4;spacingRight=4;overflow=hidden;points=[[0,0.5],[1,0.5]];portConstraint=eastwest;rotatable=0;whiteSpace=wrap;html=1;" vertex="1" parent="3ZdCSwMe_s6b4gcNYP9G-36">
          <mxGeometry y="30" width="140" height="30" as="geometry" />
        </mxCell>
        <mxCell id="3ZdCSwMe_s6b4gcNYP9G-38" value="Item 2" style="text;strokeColor=none;fillColor=none;align=left;verticalAlign=middle;spacingLeft=4;spacingRight=4;overflow=hidden;points=[[0,0.5],[1,0.5]];portConstraint=eastwest;rotatable=0;whiteSpace=wrap;html=1;" vertex="1" parent="3ZdCSwMe_s6b4gcNYP9G-36">
          <mxGeometry y="60" width="140" height="30" as="geometry" />
        </mxCell>
        <mxCell id="3ZdCSwMe_s6b4gcNYP9G-39" value="Item 3" style="text;strokeColor=none;fillColor=none;align=left;verticalAlign=middle;spacingLeft=4;spacingRight=4;overflow=hidden;points=[[0,0.5],[1,0.5]];portConstraint=eastwest;rotatable=0;whiteSpace=wrap;html=1;" vertex="1" parent="3ZdCSwMe_s6b4gcNYP9G-36">
          <mxGeometry y="90" width="140" height="30" as="geometry" />
        </mxCell>
        <mxCell id="3ZdCSwMe_s6b4gcNYP9G-40" value="&lt;span style=&quot;color: rgb(227, 234, 242); font-family: __JetBrains_Mono_2c91d1, __JetBrains_Mono_Fallback_2c91d1; font-size: 14.4px; text-align: left; white-space: pre; background-color: rgb(9, 9, 11);&quot;&gt;client_antrian&lt;/span&gt;" style="swimlane;fontStyle=0;childLayout=stackLayout;horizontal=1;startSize=30;horizontalStack=0;resizeParent=1;resizeParentMax=0;resizeLast=0;collapsible=1;marginBottom=0;whiteSpace=wrap;html=1;" vertex="1" parent="1">
          <mxGeometry x="-370" y="-380" width="140" height="160" as="geometry" />
        </mxCell>
        <mxCell id="3ZdCSwMe_s6b4gcNYP9G-41" value="&lt;span style=&quot;box-sizing: border-box; border-width: 0px; border-style: solid; border-color: hsl(var(--border)); border-image: initial; --tw-border-spacing-x: 0; --tw-border-spacing-y: 0; --tw-translate-x: 0; --tw-translate-y: 0; --tw-rotate: 0; --tw-skew-x: 0; --tw-skew-y: 0; --tw-scale-x: 1; --tw-scale-y: 1; --tw-pan-x: ; --tw-pan-y: ; --tw-pinch-zoom: ; --tw-scroll-snap-strictness: proximity; --tw-gradient-from-position: ; --tw-gradient-via-position: ; --tw-gradient-to-position: ; --tw-ordinal: ; --tw-slashed-zero: ; --tw-numeric-figure: ; --tw-numeric-spacing: ; --tw-numeric-fraction: ; --tw-ring-inset: ; --tw-ring-offset-width: 0px; --tw-ring-offset-color: #fff; --tw-ring-color: rgba(59,130,246,.5); --tw-ring-offset-shadow: 0 0 #0000; --tw-ring-shadow: 0 0 #0000; --tw-shadow: 0 0 #0000; --tw-shadow-colored: 0 0 #0000; --tw-blur: ; --tw-brightness: ; --tw-contrast: ; --tw-grayscale: ; --tw-hue-rotate: ; --tw-invert: ; --tw-saturate: ; --tw-sepia: ; --tw-drop-shadow: ; --tw-backdrop-blur: ; --tw-backdrop-brightness: ; --tw-backdrop-contrast: ; --tw-backdrop-grayscale: ; --tw-backdrop-hue-rotate: ; --tw-backdrop-invert: ; --tw-backdrop-opacity: ; --tw-backdrop-saturate: ; --tw-backdrop-sepia: ; color: rgb(227, 234, 242); font-family: __JetBrains_Mono_2c91d1, __JetBrains_Mono_Fallback_2c91d1; font-size: 14.4px; white-space: pre; background-color: rgb(9, 9, 11);&quot;&gt; &lt;/span&gt;&lt;span style=&quot;box-sizing: border-box; border-width: 0px; border-style: solid; border-color: hsl(var(--border)); border-image: initial; --tw-border-spacing-x: 0; --tw-border-spacing-y: 0; --tw-translate-x: 0; --tw-translate-y: 0; --tw-rotate: 0; --tw-skew-x: 0; --tw-skew-y: 0; --tw-scale-x: 1; --tw-scale-y: 1; --tw-pan-x: ; --tw-pan-y: ; --tw-pinch-zoom: ; --tw-scroll-snap-strictness: proximity; --tw-gradient-from-position: ; --tw-gradient-via-position: ; --tw-gradient-to-position: ; --tw-ordinal: ; --tw-slashed-zero: ; --tw-numeric-figure: ; --tw-numeric-spacing: ; --tw-numeric-fraction: ; --tw-ring-inset: ; --tw-ring-offset-width: 0px; --tw-ring-offset-color: #fff; --tw-ring-color: rgba(59,130,246,.5); --tw-ring-offset-shadow: 0 0 #0000; --tw-ring-shadow: 0 0 #0000; --tw-shadow: 0 0 #0000; --tw-shadow-colored: 0 0 #0000; --tw-blur: ; --tw-brightness: ; --tw-contrast: ; --tw-grayscale: ; --tw-hue-rotate: ; --tw-invert: ; --tw-saturate: ; --tw-sepia: ; --tw-drop-shadow: ; --tw-backdrop-blur: ; --tw-backdrop-brightness: ; --tw-backdrop-contrast: ; --tw-backdrop-grayscale: ; --tw-backdrop-hue-rotate: ; --tw-backdrop-invert: ; --tw-backdrop-opacity: ; --tw-backdrop-saturate: ; --tw-backdrop-sepia: ; font-family: __JetBrains_Mono_2c91d1, __JetBrains_Mono_Fallback_2c91d1; font-size: 14.4px; white-space: pre; background-color: rgb(9, 9, 11); color: rgb(198, 153, 227);&quot; class=&quot;token&quot;&gt;id&lt;/span&gt;&lt;span style=&quot;box-sizing: border-box; border-width: 0px; border-style: solid; border-color: hsl(var(--border)); border-image: initial; --tw-border-spacing-x: 0; --tw-border-spacing-y: 0; --tw-translate-x: 0; --tw-translate-y: 0; --tw-rotate: 0; --tw-skew-x: 0; --tw-skew-y: 0; --tw-scale-x: 1; --tw-scale-y: 1; --tw-pan-x: ; --tw-pan-y: ; --tw-pinch-zoom: ; --tw-scroll-snap-strictness: proximity; --tw-gradient-from-position: ; --tw-gradient-via-position: ; --tw-gradient-to-position: ; --tw-ordinal: ; --tw-slashed-zero: ; --tw-numeric-figure: ; --tw-numeric-spacing: ; --tw-numeric-fraction: ; --tw-ring-inset: ; --tw-ring-offset-width: 0px; --tw-ring-offset-color: #fff; --tw-ring-color: rgba(59,130,246,.5); --tw-ring-offset-shadow: 0 0 #0000; --tw-ring-shadow: 0 0 #0000; --tw-shadow: 0 0 #0000; --tw-shadow-colored: 0 0 #0000; --tw-blur: ; --tw-brightness: ; --tw-contrast: ; --tw-grayscale: ; --tw-hue-rotate: ; --tw-invert: ; --tw-saturate: ; --tw-sepia: ; --tw-drop-shadow: ; --tw-backdrop-blur: ; --tw-backdrop-brightness: ; --tw-backdrop-contrast: ; --tw-backdrop-grayscale: ; --tw-backdrop-hue-rotate: ; --tw-backdrop-invert: ; --tw-backdrop-opacity: ; --tw-backdrop-saturate: ; --tw-backdrop-sepia: ; color: rgb(227, 234, 242); font-family: __JetBrains_Mono_2c91d1, __JetBrains_Mono_Fallback_2c91d1; font-size: 14.4px; white-space: pre; background-color: rgb(9, 9, 11);&quot;&gt; &lt;/span&gt;&lt;span style=&quot;box-sizing: border-box; border-width: 0px; border-style: solid; border-color: hsl(var(--border)); border-image: initial; --tw-border-spacing-x: 0; --tw-border-spacing-y: 0; --tw-translate-x: 0; --tw-translate-y: 0; --tw-rotate: 0; --tw-skew-x: 0; --tw-skew-y: 0; --tw-scale-x: 1; --tw-scale-y: 1; --tw-pan-x: ; --tw-pan-y: ; --tw-pinch-zoom: ; --tw-scroll-snap-strictness: proximity; --tw-gradient-from-position: ; --tw-gradient-via-position: ; --tw-gradient-to-position: ; --tw-ordinal: ; --tw-slashed-zero: ; --tw-numeric-figure: ; --tw-numeric-spacing: ; --tw-numeric-fraction: ; --tw-ring-inset: ; --tw-ring-offset-width: 0px; --tw-ring-offset-color: #fff; --tw-ring-color: rgba(59,130,246,.5); --tw-ring-offset-shadow: 0 0 #0000; --tw-ring-shadow: 0 0 #0000; --tw-shadow: 0 0 #0000; --tw-shadow-colored: 0 0 #0000; --tw-blur: ; --tw-brightness: ; --tw-contrast: ; --tw-grayscale: ; --tw-hue-rotate: ; --tw-invert: ; --tw-saturate: ; --tw-sepia: ; --tw-drop-shadow: ; --tw-backdrop-blur: ; --tw-backdrop-brightness: ; --tw-backdrop-contrast: ; --tw-backdrop-grayscale: ; --tw-backdrop-hue-rotate: ; --tw-backdrop-invert: ; --tw-backdrop-opacity: ; --tw-backdrop-saturate: ; --tw-backdrop-sepia: ; color: rgb(227, 234, 242); font-family: __JetBrains_Mono_2c91d1, __JetBrains_Mono_Fallback_2c91d1; font-size: 14.4px; white-space: pre; background-color: rgb(9, 9, 11);&quot; class=&quot;token&quot;&gt;(&lt;/span&gt;&lt;span style=&quot;box-sizing: border-box; border-width: 0px; border-style: solid; border-color: hsl(var(--border)); border-image: initial; --tw-border-spacing-x: 0; --tw-border-spacing-y: 0; --tw-translate-x: 0; --tw-translate-y: 0; --tw-rotate: 0; --tw-skew-x: 0; --tw-skew-y: 0; --tw-scale-x: 1; --tw-scale-y: 1; --tw-pan-x: ; --tw-pan-y: ; --tw-pinch-zoom: ; --tw-scroll-snap-strictness: proximity; --tw-gradient-from-position: ; --tw-gradient-via-position: ; --tw-gradient-to-position: ; --tw-ordinal: ; --tw-slashed-zero: ; --tw-numeric-figure: ; --tw-numeric-spacing: ; --tw-numeric-fraction: ; --tw-ring-inset: ; --tw-ring-offset-width: 0px; --tw-ring-offset-color: #fff; --tw-ring-color: rgba(59,130,246,.5); --tw-ring-offset-shadow: 0 0 #0000; --tw-ring-shadow: 0 0 #0000; --tw-shadow: 0 0 #0000; --tw-shadow-colored: 0 0 #0000; --tw-blur: ; --tw-brightness: ; --tw-contrast: ; --tw-grayscale: ; --tw-hue-rotate: ; --tw-invert: ; --tw-saturate: ; --tw-sepia: ; --tw-drop-shadow: ; --tw-backdrop-blur: ; --tw-backdrop-brightness: ; --tw-backdrop-contrast: ; --tw-backdrop-grayscale: ; --tw-backdrop-hue-rotate: ; --tw-backdrop-invert: ; --tw-backdrop-opacity: ; --tw-backdrop-saturate: ; --tw-backdrop-sepia: ; color: rgb(227, 234, 242); font-family: __JetBrains_Mono_2c91d1, __JetBrains_Mono_Fallback_2c91d1; font-size: 14.4px; white-space: pre; background-color: rgb(9, 9, 11);&quot;&gt;PK&lt;/span&gt;&lt;span style=&quot;box-sizing: border-box; border-width: 0px; border-style: solid; border-color: hsl(var(--border)); border-image: initial; --tw-border-spacing-x: 0; --tw-border-spacing-y: 0; --tw-translate-x: 0; --tw-translate-y: 0; --tw-rotate: 0; --tw-skew-x: 0; --tw-skew-y: 0; --tw-scale-x: 1; --tw-scale-y: 1; --tw-pan-x: ; --tw-pan-y: ; --tw-pinch-zoom: ; --tw-scroll-snap-strictness: proximity; --tw-gradient-from-position: ; --tw-gradient-via-position: ; --tw-gradient-to-position: ; --tw-ordinal: ; --tw-slashed-zero: ; --tw-numeric-figure: ; --tw-numeric-spacing: ; --tw-numeric-fraction: ; --tw-ring-inset: ; --tw-ring-offset-width: 0px; --tw-ring-offset-color: #fff; --tw-ring-color: rgba(59,130,246,.5); --tw-ring-offset-shadow: 0 0 #0000; --tw-ring-shadow: 0 0 #0000; --tw-shadow: 0 0 #0000; --tw-shadow-colored: 0 0 #0000; --tw-blur: ; --tw-brightness: ; --tw-contrast: ; --tw-grayscale: ; --tw-hue-rotate: ; --tw-invert: ; --tw-saturate: ; --tw-sepia: ; --tw-drop-shadow: ; --tw-backdrop-blur: ; --tw-backdrop-brightness: ; --tw-backdrop-contrast: ; --tw-backdrop-grayscale: ; --tw-backdrop-hue-rotate: ; --tw-backdrop-invert: ; --tw-backdrop-opacity: ; --tw-backdrop-saturate: ; --tw-backdrop-sepia: ; color: rgb(227, 234, 242); font-family: __JetBrains_Mono_2c91d1, __JetBrains_Mono_Fallback_2c91d1; font-size: 14.4px; white-space: pre; background-color: rgb(9, 9, 11);&quot; class=&quot;token&quot;&gt;)&lt;/span&gt;&lt;span style=&quot;box-sizing: border-box; border-width: 0px; border-style: solid; border-color: hsl(var(--border)); border-image: initial; --tw-border-spacing-x: 0; --tw-border-spacing-y: 0; --tw-translate-x: 0; --tw-translate-y: 0; --tw-rotate: 0; --tw-skew-x: 0; --tw-skew-y: 0; --tw-scale-x: 1; --tw-scale-y: 1; --tw-pan-x: ; --tw-pan-y: ; --tw-pinch-zoom: ; --tw-scroll-snap-strictness: proximity; --tw-gradient-from-position: ; --tw-gradient-via-position: ; --tw-gradient-to-position: ; --tw-ordinal: ; --tw-slashed-zero: ; --tw-numeric-figure: ; --tw-numeric-spacing: ; --tw-numeric-fraction: ; --tw-ring-inset: ; --tw-ring-offset-width: 0px; --tw-ring-offset-color: #fff; --tw-ring-color: rgba(59,130,246,.5); --tw-ring-offset-shadow: 0 0 #0000; --tw-ring-shadow: 0 0 #0000; --tw-shadow: 0 0 #0000; --tw-shadow-colored: 0 0 #0000; --tw-blur: ; --tw-brightness: ; --tw-contrast: ; --tw-grayscale: ; --tw-hue-rotate: ; --tw-invert: ; --tw-saturate: ; --tw-sepia: ; --tw-drop-shadow: ; --tw-backdrop-blur: ; --tw-backdrop-brightness: ; --tw-backdrop-contrast: ; --tw-backdrop-grayscale: ; --tw-backdrop-hue-rotate: ; --tw-backdrop-invert: ; --tw-backdrop-opacity: ; --tw-backdrop-saturate: ; --tw-backdrop-sepia: ; color: rgb(227, 234, 242); font-family: __JetBrains_Mono_2c91d1, __JetBrains_Mono_Fallback_2c91d1; font-size: 14.4px; white-space: pre; background-color: rgb(9, 9, 11);&quot;&gt;   &lt;/span&gt;" style="text;strokeColor=none;fillColor=none;align=left;verticalAlign=middle;spacingLeft=4;spacingRight=4;overflow=hidden;points=[[0,0.5],[1,0.5]];portConstraint=eastwest;rotatable=0;whiteSpace=wrap;html=1;" vertex="1" parent="3ZdCSwMe_s6b4gcNYP9G-40">
          <mxGeometry y="30" width="140" height="30" as="geometry" />
        </mxCell>
        <mxCell id="3ZdCSwMe_s6b4gcNYP9G-42" value="&lt;span style=&quot;box-sizing: border-box; border-width: 0px; border-style: solid; border-color: hsl(var(--border)); border-image: initial; --tw-border-spacing-x: 0; --tw-border-spacing-y: 0; --tw-translate-x: 0; --tw-translate-y: 0; --tw-rotate: 0; --tw-skew-x: 0; --tw-skew-y: 0; --tw-scale-x: 1; --tw-scale-y: 1; --tw-pan-x: ; --tw-pan-y: ; --tw-pinch-zoom: ; --tw-scroll-snap-strictness: proximity; --tw-gradient-from-position: ; --tw-gradient-via-position: ; --tw-gradient-to-position: ; --tw-ordinal: ; --tw-slashed-zero: ; --tw-numeric-figure: ; --tw-numeric-spacing: ; --tw-numeric-fraction: ; --tw-ring-inset: ; --tw-ring-offset-width: 0px; --tw-ring-offset-color: #fff; --tw-ring-color: rgba(59,130,246,.5); --tw-ring-offset-shadow: 0 0 #0000; --tw-ring-shadow: 0 0 #0000; --tw-shadow: 0 0 #0000; --tw-shadow-colored: 0 0 #0000; --tw-blur: ; --tw-brightness: ; --tw-contrast: ; --tw-grayscale: ; --tw-hue-rotate: ; --tw-invert: ; --tw-saturate: ; --tw-sepia: ; --tw-drop-shadow: ; --tw-backdrop-blur: ; --tw-backdrop-brightness: ; --tw-backdrop-contrast: ; --tw-backdrop-grayscale: ; --tw-backdrop-hue-rotate: ; --tw-backdrop-invert: ; --tw-backdrop-opacity: ; --tw-backdrop-saturate: ; --tw-backdrop-sepia: ; font-family: __JetBrains_Mono_2c91d1, __JetBrains_Mono_Fallback_2c91d1; font-size: 14.4px; white-space: pre; background-color: rgb(9, 9, 11); color: rgb(198, 153, 227);&quot; class=&quot;token&quot;&gt;client&lt;/span&gt;&lt;span style=&quot;box-sizing: border-box; border-width: 0px; border-style: solid; border-color: hsl(var(--border)); border-image: initial; --tw-border-spacing-x: 0; --tw-border-spacing-y: 0; --tw-translate-x: 0; --tw-translate-y: 0; --tw-rotate: 0; --tw-skew-x: 0; --tw-skew-y: 0; --tw-scale-x: 1; --tw-scale-y: 1; --tw-pan-x: ; --tw-pan-y: ; --tw-pinch-zoom: ; --tw-scroll-snap-strictness: proximity; --tw-gradient-from-position: ; --tw-gradient-via-position: ; --tw-gradient-to-position: ; --tw-ordinal: ; --tw-slashed-zero: ; --tw-numeric-figure: ; --tw-numeric-spacing: ; --tw-numeric-fraction: ; --tw-ring-inset: ; --tw-ring-offset-width: 0px; --tw-ring-offset-color: #fff; --tw-ring-color: rgba(59,130,246,.5); --tw-ring-offset-shadow: 0 0 #0000; --tw-ring-shadow: 0 0 #0000; --tw-shadow: 0 0 #0000; --tw-shadow-colored: 0 0 #0000; --tw-blur: ; --tw-brightness: ; --tw-contrast: ; --tw-grayscale: ; --tw-hue-rotate: ; --tw-invert: ; --tw-saturate: ; --tw-sepia: ; --tw-drop-shadow: ; --tw-backdrop-blur: ; --tw-backdrop-brightness: ; --tw-backdrop-contrast: ; --tw-backdrop-grayscale: ; --tw-backdrop-hue-rotate: ; --tw-backdrop-invert: ; --tw-backdrop-opacity: ; --tw-backdrop-saturate: ; --tw-backdrop-sepia: ; color: rgb(227, 234, 242); font-family: __JetBrains_Mono_2c91d1, __JetBrains_Mono_Fallback_2c91d1; font-size: 14.4px; white-space: pre; background-color: rgb(9, 9, 11);&quot;&gt; &lt;/span&gt;&lt;span style=&quot;box-sizing: border-box; border-width: 0px; border-style: solid; border-color: hsl(var(--border)); border-image: initial; --tw-border-spacing-x: 0; --tw-border-spacing-y: 0; --tw-translate-x: 0; --tw-translate-y: 0; --tw-rotate: 0; --tw-skew-x: 0; --tw-skew-y: 0; --tw-scale-x: 1; --tw-scale-y: 1; --tw-pan-x: ; --tw-pan-y: ; --tw-pinch-zoom: ; --tw-scroll-snap-strictness: proximity; --tw-gradient-from-position: ; --tw-gradient-via-position: ; --tw-gradient-to-position: ; --tw-ordinal: ; --tw-slashed-zero: ; --tw-numeric-figure: ; --tw-numeric-spacing: ; --tw-numeric-fraction: ; --tw-ring-inset: ; --tw-ring-offset-width: 0px; --tw-ring-offset-color: #fff; --tw-ring-color: rgba(59,130,246,.5); --tw-ring-offset-shadow: 0 0 #0000; --tw-ring-shadow: 0 0 #0000; --tw-shadow: 0 0 #0000; --tw-shadow-colored: 0 0 #0000; --tw-blur: ; --tw-brightness: ; --tw-contrast: ; --tw-grayscale: ; --tw-hue-rotate: ; --tw-invert: ; --tw-saturate: ; --tw-sepia: ; --tw-drop-shadow: ; --tw-backdrop-blur: ; --tw-backdrop-brightness: ; --tw-backdrop-contrast: ; --tw-backdrop-grayscale: ; --tw-backdrop-hue-rotate: ; --tw-backdrop-invert: ; --tw-backdrop-opacity: ; --tw-backdrop-saturate: ; --tw-backdrop-sepia: ; color: rgb(227, 234, 242); font-family: __JetBrains_Mono_2c91d1, __JetBrains_Mono_Fallback_2c91d1; font-size: 14.4px; white-space: pre; background-color: rgb(9, 9, 11);&quot; class=&quot;token&quot;&gt;(&lt;/span&gt;&lt;span style=&quot;box-sizing: border-box; border-width: 0px; border-style: solid; border-color: hsl(var(--border)); border-image: initial; --tw-border-spacing-x: 0; --tw-border-spacing-y: 0; --tw-translate-x: 0; --tw-translate-y: 0; --tw-rotate: 0; --tw-skew-x: 0; --tw-skew-y: 0; --tw-scale-x: 1; --tw-scale-y: 1; --tw-pan-x: ; --tw-pan-y: ; --tw-pinch-zoom: ; --tw-scroll-snap-strictness: proximity; --tw-gradient-from-position: ; --tw-gradient-via-position: ; --tw-gradient-to-position: ; --tw-ordinal: ; --tw-slashed-zero: ; --tw-numeric-figure: ; --tw-numeric-spacing: ; --tw-numeric-fraction: ; --tw-ring-inset: ; --tw-ring-offset-width: 0px; --tw-ring-offset-color: #fff; --tw-ring-color: rgba(59,130,246,.5); --tw-ring-offset-shadow: 0 0 #0000; --tw-ring-shadow: 0 0 #0000; --tw-shadow: 0 0 #0000; --tw-shadow-colored: 0 0 #0000; --tw-blur: ; --tw-brightness: ; --tw-contrast: ; --tw-grayscale: ; --tw-hue-rotate: ; --tw-invert: ; --tw-saturate: ; --tw-sepia: ; --tw-drop-shadow: ; --tw-backdrop-blur: ; --tw-backdrop-brightness: ; --tw-backdrop-contrast: ; --tw-backdrop-grayscale: ; --tw-backdrop-hue-rotate: ; --tw-backdrop-invert: ; --tw-backdrop-opacity: ; --tw-backdrop-saturate: ; --tw-backdrop-sepia: ; color: rgb(227, 234, 242); font-family: __JetBrains_Mono_2c91d1, __JetBrains_Mono_Fallback_2c91d1; font-size: 14.4px; white-space: pre; background-color: rgb(9, 9, 11);&quot;&gt;FK&lt;/span&gt;&lt;span style=&quot;box-sizing: border-box; border-width: 0px; border-style: solid; border-color: hsl(var(--border)); border-image: initial; --tw-border-spacing-x: 0; --tw-border-spacing-y: 0; --tw-translate-x: 0; --tw-translate-y: 0; --tw-rotate: 0; --tw-skew-x: 0; --tw-skew-y: 0; --tw-scale-x: 1; --tw-scale-y: 1; --tw-pan-x: ; --tw-pan-y: ; --tw-pinch-zoom: ; --tw-scroll-snap-strictness: proximity; --tw-gradient-from-position: ; --tw-gradient-via-position: ; --tw-gradient-to-position: ; --tw-ordinal: ; --tw-slashed-zero: ; --tw-numeric-figure: ; --tw-numeric-spacing: ; --tw-numeric-fraction: ; --tw-ring-inset: ; --tw-ring-offset-width: 0px; --tw-ring-offset-color: #fff; --tw-ring-color: rgba(59,130,246,.5); --tw-ring-offset-shadow: 0 0 #0000; --tw-ring-shadow: 0 0 #0000; --tw-shadow: 0 0 #0000; --tw-shadow-colored: 0 0 #0000; --tw-blur: ; --tw-brightness: ; --tw-contrast: ; --tw-grayscale: ; --tw-hue-rotate: ; --tw-invert: ; --tw-saturate: ; --tw-sepia: ; --tw-drop-shadow: ; --tw-backdrop-blur: ; --tw-backdrop-brightness: ; --tw-backdrop-contrast: ; --tw-backdrop-grayscale: ; --tw-backdrop-hue-rotate: ; --tw-backdrop-invert: ; --tw-backdrop-opacity: ; --tw-backdrop-saturate: ; --tw-backdrop-sepia: ; color: rgb(227, 234, 242); font-family: __JetBrains_Mono_2c91d1, __JetBrains_Mono_Fallback_2c91d1; font-size: 14.4px; white-space: pre; background-color: rgb(9, 9, 11);&quot; class=&quot;token&quot;&gt;)&lt;/span&gt;" style="text;strokeColor=none;fillColor=none;align=left;verticalAlign=middle;spacingLeft=4;spacingRight=4;overflow=hidden;points=[[0,0.5],[1,0.5]];portConstraint=eastwest;rotatable=0;whiteSpace=wrap;html=1;" vertex="1" parent="3ZdCSwMe_s6b4gcNYP9G-40">
          <mxGeometry y="60" width="140" height="30" as="geometry" />
        </mxCell>
        <mxCell id="3ZdCSwMe_s6b4gcNYP9G-43" value="&lt;div&gt;primary key&lt;/div&gt;&lt;div&gt;client_antrian&amp;nbsp;&lt;/div&gt;constraint fk_client_antrian&amp;nbsp;" style="text;strokeColor=none;fillColor=none;align=left;verticalAlign=middle;spacingLeft=4;spacingRight=4;overflow=hidden;points=[[0,0.5],[1,0.5]];portConstraint=eastwest;rotatable=0;whiteSpace=wrap;html=1;" vertex="1" parent="3ZdCSwMe_s6b4gcNYP9G-40">
          <mxGeometry y="90" width="140" height="70" as="geometry" />
        </mxCell>
        <mxCell id="3ZdCSwMe_s6b4gcNYP9G-45" value="data_antrian" style="swimlane;fontStyle=0;childLayout=stackLayout;horizontal=1;startSize=30;horizontalStack=0;resizeParent=1;resizeParentMax=0;resizeLast=0;collapsible=1;marginBottom=0;whiteSpace=wrap;html=1;" vertex="1" parent="1">
          <mxGeometry x="-160" y="-380" width="140" height="160" as="geometry" />
        </mxCell>
        <mxCell id="3ZdCSwMe_s6b4gcNYP9G-46" value="&lt;span style=&quot;box-sizing: border-box; border-width: 0px; border-style: solid; border-color: hsl(var(--border)); border-image: initial; --tw-border-spacing-x: 0; --tw-border-spacing-y: 0; --tw-translate-x: 0; --tw-translate-y: 0; --tw-rotate: 0; --tw-skew-x: 0; --tw-skew-y: 0; --tw-scale-x: 1; --tw-scale-y: 1; --tw-pan-x: ; --tw-pan-y: ; --tw-pinch-zoom: ; --tw-scroll-snap-strictness: proximity; --tw-gradient-from-position: ; --tw-gradient-via-position: ; --tw-gradient-to-position: ; --tw-ordinal: ; --tw-slashed-zero: ; --tw-numeric-figure: ; --tw-numeric-spacing: ; --tw-numeric-fraction: ; --tw-ring-inset: ; --tw-ring-offset-width: 0px; --tw-ring-offset-color: #fff; --tw-ring-color: rgba(59,130,246,.5); --tw-ring-offset-shadow: 0 0 #0000; --tw-ring-shadow: 0 0 #0000; --tw-shadow: 0 0 #0000; --tw-shadow-colored: 0 0 #0000; --tw-blur: ; --tw-brightness: ; --tw-contrast: ; --tw-grayscale: ; --tw-hue-rotate: ; --tw-invert: ; --tw-saturate: ; --tw-sepia: ; --tw-drop-shadow: ; --tw-backdrop-blur: ; --tw-backdrop-brightness: ; --tw-backdrop-contrast: ; --tw-backdrop-grayscale: ; --tw-backdrop-hue-rotate: ; --tw-backdrop-invert: ; --tw-backdrop-opacity: ; --tw-backdrop-saturate: ; --tw-backdrop-sepia: ; font-family: __JetBrains_Mono_2c91d1, __JetBrains_Mono_Fallback_2c91d1; font-size: 14.4px; white-space: pre; background-color: rgb(9, 9, 11); color: rgb(198, 153, 227);&quot; class=&quot;token&quot;&gt;id&lt;/span&gt;&lt;span style=&quot;box-sizing: border-box; border-width: 0px; border-style: solid; border-color: hsl(var(--border)); border-image: initial; --tw-border-spacing-x: 0; --tw-border-spacing-y: 0; --tw-translate-x: 0; --tw-translate-y: 0; --tw-rotate: 0; --tw-skew-x: 0; --tw-skew-y: 0; --tw-scale-x: 1; --tw-scale-y: 1; --tw-pan-x: ; --tw-pan-y: ; --tw-pinch-zoom: ; --tw-scroll-snap-strictness: proximity; --tw-gradient-from-position: ; --tw-gradient-via-position: ; --tw-gradient-to-position: ; --tw-ordinal: ; --tw-slashed-zero: ; --tw-numeric-figure: ; --tw-numeric-spacing: ; --tw-numeric-fraction: ; --tw-ring-inset: ; --tw-ring-offset-width: 0px; --tw-ring-offset-color: #fff; --tw-ring-color: rgba(59,130,246,.5); --tw-ring-offset-shadow: 0 0 #0000; --tw-ring-shadow: 0 0 #0000; --tw-shadow: 0 0 #0000; --tw-shadow-colored: 0 0 #0000; --tw-blur: ; --tw-brightness: ; --tw-contrast: ; --tw-grayscale: ; --tw-hue-rotate: ; --tw-invert: ; --tw-saturate: ; --tw-sepia: ; --tw-drop-shadow: ; --tw-backdrop-blur: ; --tw-backdrop-brightness: ; --tw-backdrop-contrast: ; --tw-backdrop-grayscale: ; --tw-backdrop-hue-rotate: ; --tw-backdrop-invert: ; --tw-backdrop-opacity: ; --tw-backdrop-saturate: ; --tw-backdrop-sepia: ; color: rgb(227, 234, 242); font-family: __JetBrains_Mono_2c91d1, __JetBrains_Mono_Fallback_2c91d1; font-size: 14.4px; white-space: pre; background-color: rgb(9, 9, 11);&quot;&gt; &lt;/span&gt;&lt;span style=&quot;box-sizing: border-box; border-width: 0px; border-style: solid; border-color: hsl(var(--border)); border-image: initial; --tw-border-spacing-x: 0; --tw-border-spacing-y: 0; --tw-translate-x: 0; --tw-translate-y: 0; --tw-rotate: 0; --tw-skew-x: 0; --tw-skew-y: 0; --tw-scale-x: 1; --tw-scale-y: 1; --tw-pan-x: ; --tw-pan-y: ; --tw-pinch-zoom: ; --tw-scroll-snap-strictness: proximity; --tw-gradient-from-position: ; --tw-gradient-via-position: ; --tw-gradient-to-position: ; --tw-ordinal: ; --tw-slashed-zero: ; --tw-numeric-figure: ; --tw-numeric-spacing: ; --tw-numeric-fraction: ; --tw-ring-inset: ; --tw-ring-offset-width: 0px; --tw-ring-offset-color: #fff; --tw-ring-color: rgba(59,130,246,.5); --tw-ring-offset-shadow: 0 0 #0000; --tw-ring-shadow: 0 0 #0000; --tw-shadow: 0 0 #0000; --tw-shadow-colored: 0 0 #0000; --tw-blur: ; --tw-brightness: ; --tw-contrast: ; --tw-grayscale: ; --tw-hue-rotate: ; --tw-invert: ; --tw-saturate: ; --tw-sepia: ; --tw-drop-shadow: ; --tw-backdrop-blur: ; --tw-backdrop-brightness: ; --tw-backdrop-contrast: ; --tw-backdrop-grayscale: ; --tw-backdrop-hue-rotate: ; --tw-backdrop-invert: ; --tw-backdrop-opacity: ; --tw-backdrop-saturate: ; --tw-backdrop-sepia: ; color: rgb(227, 234, 242); font-family: __JetBrains_Mono_2c91d1, __JetBrains_Mono_Fallback_2c91d1; font-size: 14.4px; white-space: pre; background-color: rgb(9, 9, 11);&quot; class=&quot;token&quot;&gt;(&lt;/span&gt;&lt;span style=&quot;box-sizing: border-box; border-width: 0px; border-style: solid; border-color: hsl(var(--border)); border-image: initial; --tw-border-spacing-x: 0; --tw-border-spacing-y: 0; --tw-translate-x: 0; --tw-translate-y: 0; --tw-rotate: 0; --tw-skew-x: 0; --tw-skew-y: 0; --tw-scale-x: 1; --tw-scale-y: 1; --tw-pan-x: ; --tw-pan-y: ; --tw-pinch-zoom: ; --tw-scroll-snap-strictness: proximity; --tw-gradient-from-position: ; --tw-gradient-via-position: ; --tw-gradient-to-position: ; --tw-ordinal: ; --tw-slashed-zero: ; --tw-numeric-figure: ; --tw-numeric-spacing: ; --tw-numeric-fraction: ; --tw-ring-inset: ; --tw-ring-offset-width: 0px; --tw-ring-offset-color: #fff; --tw-ring-color: rgba(59,130,246,.5); --tw-ring-offset-shadow: 0 0 #0000; --tw-ring-shadow: 0 0 #0000; --tw-shadow: 0 0 #0000; --tw-shadow-colored: 0 0 #0000; --tw-blur: ; --tw-brightness: ; --tw-contrast: ; --tw-grayscale: ; --tw-hue-rotate: ; --tw-invert: ; --tw-saturate: ; --tw-sepia: ; --tw-drop-shadow: ; --tw-backdrop-blur: ; --tw-backdrop-brightness: ; --tw-backdrop-contrast: ; --tw-backdrop-grayscale: ; --tw-backdrop-hue-rotate: ; --tw-backdrop-invert: ; --tw-backdrop-opacity: ; --tw-backdrop-saturate: ; --tw-backdrop-sepia: ; color: rgb(227, 234, 242); font-family: __JetBrains_Mono_2c91d1, __JetBrains_Mono_Fallback_2c91d1; font-size: 14.4px; white-space: pre; background-color: rgb(9, 9, 11);&quot;&gt;PK&lt;/span&gt;&lt;span style=&quot;box-sizing: border-box; border-width: 0px; border-style: solid; border-color: hsl(var(--border)); border-image: initial; --tw-border-spacing-x: 0; --tw-border-spacing-y: 0; --tw-translate-x: 0; --tw-translate-y: 0; --tw-rotate: 0; --tw-skew-x: 0; --tw-skew-y: 0; --tw-scale-x: 1; --tw-scale-y: 1; --tw-pan-x: ; --tw-pan-y: ; --tw-pinch-zoom: ; --tw-scroll-snap-strictness: proximity; --tw-gradient-from-position: ; --tw-gradient-via-position: ; --tw-gradient-to-position: ; --tw-ordinal: ; --tw-slashed-zero: ; --tw-numeric-figure: ; --tw-numeric-spacing: ; --tw-numeric-fraction: ; --tw-ring-inset: ; --tw-ring-offset-width: 0px; --tw-ring-offset-color: #fff; --tw-ring-color: rgba(59,130,246,.5); --tw-ring-offset-shadow: 0 0 #0000; --tw-ring-shadow: 0 0 #0000; --tw-shadow: 0 0 #0000; --tw-shadow-colored: 0 0 #0000; --tw-blur: ; --tw-brightness: ; --tw-contrast: ; --tw-grayscale: ; --tw-hue-rotate: ; --tw-invert: ; --tw-saturate: ; --tw-sepia: ; --tw-drop-shadow: ; --tw-backdrop-blur: ; --tw-backdrop-brightness: ; --tw-backdrop-contrast: ; --tw-backdrop-grayscale: ; --tw-backdrop-hue-rotate: ; --tw-backdrop-invert: ; --tw-backdrop-opacity: ; --tw-backdrop-saturate: ; --tw-backdrop-sepia: ; color: rgb(227, 234, 242); font-family: __JetBrains_Mono_2c91d1, __JetBrains_Mono_Fallback_2c91d1; font-size: 14.4px; white-space: pre; background-color: rgb(9, 9, 11);&quot; class=&quot;token&quot;&gt;)&lt;/span&gt;" style="text;strokeColor=none;fillColor=none;align=left;verticalAlign=middle;spacingLeft=4;spacingRight=4;overflow=hidden;points=[[0,0.5],[1,0.5]];portConstraint=eastwest;rotatable=0;whiteSpace=wrap;html=1;" vertex="1" parent="3ZdCSwMe_s6b4gcNYP9G-45">
          <mxGeometry y="30" width="140" height="30" as="geometry" />
        </mxCell>
        <mxCell id="3ZdCSwMe_s6b4gcNYP9G-47" value="&lt;span style=&quot;color: rgb(141, 161, 185); font-family: __JetBrains_Mono_2c91d1, __JetBrains_Mono_Fallback_2c91d1; font-size: 14.4px; white-space: pre; background-color: rgb(9, 9, 11);&quot;&gt;counter (FK)&lt;/span&gt;" style="text;strokeColor=none;fillColor=none;align=left;verticalAlign=middle;spacingLeft=4;spacingRight=4;overflow=hidden;points=[[0,0.5],[1,0.5]];portConstraint=eastwest;rotatable=0;whiteSpace=wrap;html=1;" vertex="1" parent="3ZdCSwMe_s6b4gcNYP9G-45">
          <mxGeometry y="60" width="140" height="30" as="geometry" />
        </mxCell>
        <mxCell id="3ZdCSwMe_s6b4gcNYP9G-48" value="&lt;span style=&quot;color: rgb(227, 234, 242); font-family: __JetBrains_Mono_2c91d1, __JetBrains_Mono_Fallback_2c91d1; font-size: 14.4px; white-space: pre; background-color: rgb(9, 9, 11);&quot;&gt;status&lt;/span&gt;&lt;div&gt;primary key&amp;nbsp;data_antrian_pk&lt;/div&gt;&lt;div&gt;`data_antrian_status_check&lt;br&gt;&lt;/div&gt;" style="text;strokeColor=none;fillColor=none;align=left;verticalAlign=middle;spacingLeft=4;spacingRight=4;overflow=hidden;points=[[0,0.5],[1,0.5]];portConstraint=eastwest;rotatable=0;whiteSpace=wrap;html=1;" vertex="1" parent="3ZdCSwMe_s6b4gcNYP9G-45">
          <mxGeometry y="90" width="140" height="70" as="geometry" />
        </mxCell>
        <mxCell id="3ZdCSwMe_s6b4gcNYP9G-49" style="edgeStyle=orthogonalEdgeStyle;rounded=0;orthogonalLoop=1;jettySize=auto;html=1;entryX=0;entryY=0.5;entryDx=0;entryDy=0;" edge="1" parent="1" source="3ZdCSwMe_s6b4gcNYP9G-42" target="3ZdCSwMe_s6b4gcNYP9G-47">
          <mxGeometry relative="1" as="geometry" />
        </mxCell>
      </root>
    </mxGraphModel>
  </diagram>
</mxfile>
